<svg xmlns="http://www.w3.org/2000/svg" xmlns:xlink="http://www.w3.org/1999/xlink" width="100" zoomAndPan="magnify" viewBox="0 0 75 30.000001" height="40" preserveAspectRatio="xMidYMid meet" version="1.0"><defs><g/><clipPath id="fe7c7cc9da"><path d="M 1.210938 0 L 73.789062 0 L 73.789062 29.03125 L 1.210938 29.03125 Z M 1.210938 0 " clip-rule="nonzero"/></clipPath></defs><g clip-path="url(#fe7c7cc9da)"><path fill="#ffffff" d="M 1.210938 0 L 73.789062 0 L 73.789062 29.03125 L 1.210938 29.03125 Z M 1.210938 0 " fill-opacity="1" fill-rule="nonzero"/><path fill="#0000f4" d="M 1.210938 0 L 73.789062 0 L 73.789062 29.03125 L 1.210938 29.03125 Z M 1.210938 0 " fill-opacity="1" fill-rule="nonzero"/></g><g fill="#ffffff" fill-opacity="1"><g transform="translate(1.209676, 22.578817)"><g><path d="M 16.5625 0 L 13.546875 0 L 13.546875 -10.4375 L 13.59375 -12.921875 L 13.515625 -12.921875 L 10.625 0 L 7.453125 0 L 4.640625 -12.921875 L 4.5625 -12.921875 L 4.59375 -10.4375 L 4.59375 0 L 1.578125 0 L 1.578125 -15.453125 L 6.296875 -15.453125 L 9.078125 -3.265625 L 9.140625 -3.265625 L 11.890625 -15.453125 L 16.5625 -15.453125 Z M 16.5625 0 "/></g></g></g><g fill="#ffffff" fill-opacity="1"><g transform="translate(19.580543, 14.664111)"><g><path d="M 2 -2.09375 L 3.40625 -2.09375 L 2.71875 -4.28125 L 2.703125 -4.28125 Z M 1.3125 0 L 0.09375 0 L 2.0625 -5.515625 L 3.390625 -5.515625 L 5.34375 0 L 4.078125 0 L 3.734375 -1.140625 L 1.6875 -1.140625 Z M 1.3125 0 "/></g></g></g><g fill="#ffffff" fill-opacity="1"><g transform="translate(25.009544, 14.664111)"><g><path d="M 3.984375 -5.515625 L 5.0625 -5.515625 L 5.0625 0 L 3.90625 0 L 1.65625 -3.9375 L 1.640625 -3.9375 L 1.640625 0 L 0.5625 0 L 0.5625 -5.515625 L 1.78125 -5.515625 L 3.96875 -1.671875 L 3.984375 -1.671875 Z M 3.984375 -5.515625 "/></g></g></g><g fill="#ffffff" fill-opacity="1"><g transform="translate(30.629891, 14.664111)"><g><path d="M 5 -1.921875 C 5 -1.242188 4.804688 -0.726562 4.421875 -0.375 C 4.046875 -0.03125 3.484375 0.140625 2.734375 0.140625 C 2.066406 0.140625 1.535156 -0.0234375 1.140625 -0.359375 C 0.742188 -0.703125 0.546875 -1.207031 0.546875 -1.875 L 0.546875 -5.515625 L 1.71875 -5.515625 L 1.71875 -1.9375 C 1.71875 -1.570312 1.804688 -1.296875 1.984375 -1.109375 C 2.160156 -0.921875 2.414062 -0.828125 2.75 -0.828125 C 3.09375 -0.828125 3.359375 -0.914062 3.546875 -1.09375 C 3.734375 -1.269531 3.828125 -1.535156 3.828125 -1.890625 L 3.828125 -5.515625 L 5 -5.515625 Z M 5 -1.921875 "/></g></g></g><g fill="#ffffff" fill-opacity="1"><g transform="translate(36.167697, 14.664111)"><g><path d="M 2.9375 0 L 1.78125 0 L 1.78125 -4.546875 L 0.109375 -4.546875 L 0.109375 -5.515625 L 4.609375 -5.515625 L 4.609375 -4.546875 L 2.9375 -4.546875 Z M 2.9375 0 "/></g></g></g><g fill="#ffffff" fill-opacity="1"><g transform="translate(40.880084, 14.664111)"><g><path d="M 4.625 -4.546875 L 1.6875 -4.546875 L 1.6875 -3.375 L 4.390625 -3.375 L 4.390625 -2.40625 L 1.6875 -2.40625 L 1.6875 -0.96875 L 4.75 -0.96875 L 4.75 0 L 0.5625 0 L 0.5625 -5.515625 L 4.625 -5.515625 Z M 4.625 -4.546875 "/></g></g></g><g fill="#ffffff" fill-opacity="1"><g transform="translate(45.967662, 14.664111)"><g><path d="M 3.984375 -5.515625 L 5.0625 -5.515625 L 5.0625 0 L 3.90625 0 L 1.65625 -3.9375 L 1.640625 -3.9375 L 1.640625 0 L 0.5625 0 L 0.5625 -5.515625 L 1.78125 -5.515625 L 3.96875 -1.671875 L 3.984375 -1.671875 Z M 3.984375 -5.515625 "/></g></g></g><g fill="#ffffff" fill-opacity="1"><g transform="translate(51.58801, 14.664111)"><g><path d="M 2.9375 0 L 1.78125 0 L 1.78125 -4.546875 L 0.109375 -4.546875 L 0.109375 -5.515625 L 4.609375 -5.515625 L 4.609375 -4.546875 L 2.9375 -4.546875 Z M 2.9375 0 "/></g></g></g><g fill="#ffffff" fill-opacity="1"><g transform="translate(56.300397, 14.664111)"><g><path d="M 1.71875 0 L 0.5625 0 L 0.5625 -5.515625 L 1.71875 -5.515625 Z M 1.71875 0 "/></g></g></g><g fill="#ffffff" fill-opacity="1"><g transform="translate(58.577801, 14.664111)"><g><path d="M 1.46875 -2.765625 C 1.46875 -2.117188 1.609375 -1.632812 1.890625 -1.3125 C 2.179688 -0.988281 2.546875 -0.828125 2.984375 -0.828125 C 3.421875 -0.828125 3.773438 -0.992188 4.046875 -1.328125 C 4.328125 -1.660156 4.46875 -2.140625 4.46875 -2.765625 C 4.46875 -3.378906 4.332031 -3.851562 4.0625 -4.1875 C 3.789062 -4.519531 3.425781 -4.6875 2.96875 -4.6875 C 2.519531 -4.6875 2.15625 -4.519531 1.875 -4.1875 C 1.601562 -3.851562 1.46875 -3.378906 1.46875 -2.765625 Z M 0.3125 -2.765625 C 0.3125 -3.703125 0.554688 -4.421875 1.046875 -4.921875 C 1.546875 -5.421875 2.1875 -5.671875 2.96875 -5.671875 C 3.738281 -5.671875 4.375 -5.425781 4.875 -4.9375 C 5.375 -4.445312 5.625 -3.722656 5.625 -2.765625 C 5.625 -1.828125 5.378906 -1.109375 4.890625 -0.609375 C 4.398438 -0.109375 3.757812 0.140625 2.96875 0.140625 C 2.21875 0.140625 1.585938 -0.09375 1.078125 -0.5625 C 0.566406 -1.039062 0.3125 -1.773438 0.3125 -2.765625 Z M 0.3125 -2.765625 "/></g></g></g><g fill="#ffffff" fill-opacity="1"><g transform="translate(64.51706, 14.664111)"><g><path d="M 3.984375 -5.515625 L 5.0625 -5.515625 L 5.0625 0 L 3.90625 0 L 1.65625 -3.9375 L 1.640625 -3.9375 L 1.640625 0 L 0.5625 0 L 0.5625 -5.515625 L 1.78125 -5.515625 L 3.96875 -1.671875 L 3.984375 -1.671875 Z M 3.984375 -5.515625 "/></g></g></g><g fill="#ffffff" fill-opacity="1"><g transform="translate(19.046558, 22.724217)"><g><path d="M 1.671875 -3.359375 L 3.015625 -3.359375 C 3.285156 -3.359375 3.488281 -3.410156 3.625 -3.515625 C 3.769531 -3.628906 3.84375 -3.78125 3.84375 -3.96875 C 3.84375 -4.164062 3.773438 -4.3125 3.640625 -4.40625 C 3.515625 -4.507812 3.296875 -4.5625 2.984375 -4.5625 L 1.671875 -4.5625 Z M 1.671875 -0.953125 L 3.078125 -0.953125 C 3.359375 -0.953125 3.578125 -1.015625 3.734375 -1.140625 C 3.890625 -1.273438 3.96875 -1.484375 3.96875 -1.765625 C 3.96875 -1.960938 3.894531 -2.117188 3.75 -2.234375 C 3.601562 -2.359375 3.398438 -2.421875 3.140625 -2.421875 L 1.671875 -2.421875 Z M 0.5625 -5.515625 L 3.25 -5.515625 C 3.800781 -5.515625 4.21875 -5.378906 4.5 -5.109375 C 4.789062 -4.847656 4.9375 -4.515625 4.9375 -4.109375 C 4.9375 -3.546875 4.710938 -3.171875 4.265625 -2.984375 C 4.835938 -2.765625 5.125 -2.316406 5.125 -1.640625 C 5.125 -1.421875 5.082031 -1.210938 5 -1.015625 C 4.914062 -0.816406 4.785156 -0.628906 4.609375 -0.453125 C 4.429688 -0.285156 4.21875 -0.164062 3.96875 -0.09375 C 3.726562 -0.03125 3.367188 0 2.890625 0 L 0.5625 0 Z M 0.5625 -5.515625 "/></g></g></g><g fill="#ffffff" fill-opacity="1"><g transform="translate(24.464303, 22.724217)"><g><path d="M 4.625 -4.546875 L 1.6875 -4.546875 L 1.6875 -3.375 L 4.390625 -3.375 L 4.390625 -2.40625 L 1.6875 -2.40625 L 1.6875 -0.96875 L 4.75 -0.96875 L 4.75 0 L 0.5625 0 L 0.5625 -5.515625 L 4.625 -5.515625 Z M 4.625 -4.546875 "/></g></g></g><g fill="#ffffff" fill-opacity="1"><g transform="translate(29.551881, 22.724217)"><g><path d="M 2 -2.09375 L 3.40625 -2.09375 L 2.71875 -4.28125 L 2.703125 -4.28125 Z M 1.3125 0 L 0.09375 0 L 2.0625 -5.515625 L 3.390625 -5.515625 L 5.34375 0 L 4.078125 0 L 3.734375 -1.140625 L 1.6875 -1.140625 Z M 1.3125 0 "/></g></g></g><g fill="#ffffff" fill-opacity="1"><g transform="translate(34.980881, 22.724217)"><g><path d="M 5 -1.921875 C 5 -1.242188 4.804688 -0.726562 4.421875 -0.375 C 4.046875 -0.03125 3.484375 0.140625 2.734375 0.140625 C 2.066406 0.140625 1.535156 -0.0234375 1.140625 -0.359375 C 0.742188 -0.703125 0.546875 -1.207031 0.546875 -1.875 L 0.546875 -5.515625 L 1.71875 -5.515625 L 1.71875 -1.9375 C 1.71875 -1.570312 1.804688 -1.296875 1.984375 -1.109375 C 2.160156 -0.921875 2.414062 -0.828125 2.75 -0.828125 C 3.09375 -0.828125 3.359375 -0.914062 3.546875 -1.09375 C 3.734375 -1.269531 3.828125 -1.535156 3.828125 -1.890625 L 3.828125 -5.515625 L 5 -5.515625 Z M 5 -1.921875 "/></g></g></g><g fill="#ffffff" fill-opacity="1"><g transform="translate(40.518687, 22.724217)"><g><path d="M 3.703125 -1.59375 C 3.703125 -1.007812 3.550781 -0.570312 3.25 -0.28125 C 2.957031 0 2.535156 0.140625 1.984375 0.140625 C 1.335938 0.140625 0.867188 -0.00390625 0.578125 -0.296875 C 0.285156 -0.585938 0.144531 -1.054688 0.15625 -1.703125 L 0.15625 -2.078125 L 1.234375 -2.078125 L 1.234375 -1.96875 C 1.234375 -1.488281 1.28125 -1.171875 1.375 -1.015625 C 1.476562 -0.867188 1.65625 -0.796875 1.90625 -0.796875 C 2.132812 -0.796875 2.296875 -0.847656 2.390625 -0.953125 C 2.492188 -1.066406 2.546875 -1.269531 2.546875 -1.5625 L 2.546875 -5.515625 L 3.703125 -5.515625 Z M 3.703125 -1.59375 "/></g></g></g><g fill="#ffffff" fill-opacity="1"><g transform="translate(44.743327, 22.724217)"><g><path d="M 1.46875 -2.765625 C 1.46875 -2.117188 1.609375 -1.632812 1.890625 -1.3125 C 2.179688 -0.988281 2.546875 -0.828125 2.984375 -0.828125 C 3.421875 -0.828125 3.773438 -0.992188 4.046875 -1.328125 C 4.328125 -1.660156 4.46875 -2.140625 4.46875 -2.765625 C 4.46875 -3.378906 4.332031 -3.851562 4.0625 -4.1875 C 3.789062 -4.519531 3.425781 -4.6875 2.96875 -4.6875 C 2.519531 -4.6875 2.15625 -4.519531 1.875 -4.1875 C 1.601562 -3.851562 1.46875 -3.378906 1.46875 -2.765625 Z M 0.3125 -2.765625 C 0.3125 -3.703125 0.554688 -4.421875 1.046875 -4.921875 C 1.546875 -5.421875 2.1875 -5.671875 2.96875 -5.671875 C 3.738281 -5.671875 4.375 -5.425781 4.875 -4.9375 C 5.375 -4.445312 5.625 -3.722656 5.625 -2.765625 C 5.625 -1.828125 5.378906 -1.109375 4.890625 -0.609375 C 4.398438 -0.109375 3.757812 0.140625 2.96875 0.140625 C 2.21875 0.140625 1.585938 -0.09375 1.078125 -0.5625 C 0.566406 -1.039062 0.3125 -1.773438 0.3125 -2.765625 Z M 0.3125 -2.765625 "/></g></g></g><g fill="#ffffff" fill-opacity="1"><g transform="translate(50.682586, 22.724217)"><g><path d="M 1.71875 -1 L 4.453125 -1 L 4.453125 0 L 0.5625 0 L 0.5625 -5.515625 L 1.71875 -5.515625 Z M 1.71875 -1 "/></g></g></g><g fill="#ffffff" fill-opacity="1"><g transform="translate(55.271161, 22.724217)"><g><path d="M 2 -2.09375 L 3.40625 -2.09375 L 2.71875 -4.28125 L 2.703125 -4.28125 Z M 1.3125 0 L 0.09375 0 L 2.0625 -5.515625 L 3.390625 -5.515625 L 5.34375 0 L 4.078125 0 L 3.734375 -1.140625 L 1.6875 -1.140625 Z M 1.3125 0 "/></g></g></g><g fill="#ffffff" fill-opacity="1"><g transform="translate(60.700162, 22.724217)"><g><path d="M 1.71875 0 L 0.5625 0 L 0.5625 -5.515625 L 1.71875 -5.515625 Z M 1.71875 0 "/></g></g></g><g fill="#ffffff" fill-opacity="1"><g transform="translate(62.977566, 22.724217)"><g><path d="M 1.421875 -1.703125 C 1.421875 -1.429688 1.519531 -1.210938 1.71875 -1.046875 C 1.925781 -0.890625 2.21875 -0.8125 2.59375 -0.8125 C 2.96875 -0.8125 3.253906 -0.867188 3.453125 -0.984375 C 3.648438 -1.109375 3.75 -1.289062 3.75 -1.53125 C 3.75 -1.664062 3.695312 -1.785156 3.59375 -1.890625 C 3.488281 -1.992188 3.25 -2.085938 2.875 -2.171875 L 1.9375 -2.390625 C 1.34375 -2.535156 0.9375 -2.726562 0.71875 -2.96875 C 0.507812 -3.207031 0.40625 -3.539062 0.40625 -3.96875 C 0.40625 -4.46875 0.582031 -4.875 0.9375 -5.1875 C 1.289062 -5.507812 1.820312 -5.671875 2.53125 -5.671875 C 3.226562 -5.671875 3.757812 -5.488281 4.125 -5.125 C 4.488281 -4.769531 4.671875 -4.351562 4.671875 -3.875 L 3.5625 -3.875 C 3.539062 -4.144531 3.4375 -4.347656 3.25 -4.484375 C 3.070312 -4.628906 2.800781 -4.703125 2.4375 -4.703125 C 2.15625 -4.703125 1.925781 -4.644531 1.75 -4.53125 C 1.570312 -4.414062 1.484375 -4.253906 1.484375 -4.046875 C 1.484375 -3.910156 1.519531 -3.796875 1.59375 -3.703125 C 1.675781 -3.609375 1.800781 -3.539062 1.96875 -3.5 L 3.453125 -3.140625 C 3.984375 -3.003906 4.347656 -2.8125 4.546875 -2.5625 C 4.753906 -2.320312 4.859375 -2.019531 4.859375 -1.65625 C 4.859375 -1.0625 4.648438 -0.613281 4.234375 -0.3125 C 3.816406 -0.0078125 3.300781 0.140625 2.6875 0.140625 C 1.882812 0.140625 1.285156 -0.0234375 0.890625 -0.359375 C 0.503906 -0.703125 0.3125 -1.148438 0.3125 -1.703125 Z M 1.421875 -1.703125 "/></g></g></g><g fill="#ffffff" fill-opacity="1"><g transform="translate(68.128926, 22.724217)"><g><path d="M 4.625 -4.546875 L 1.6875 -4.546875 L 1.6875 -3.375 L 4.390625 -3.375 L 4.390625 -2.40625 L 1.6875 -2.40625 L 1.6875 -0.96875 L 4.75 -0.96875 L 4.75 0 L 0.5625 0 L 0.5625 -5.515625 L 4.625 -5.515625 Z M 4.625 -4.546875 "/></g></g></g><path stroke-linecap="butt" transform="matrix(0.160593, -0.0000000000000001, 0.0000000000000001, 0.160593, 2.698733, 24.419946)" fill="none" stroke-linejoin="miter" d="M 0.00302414 2.006579 L 94.671952 2.006579 " stroke="#eefd53" stroke-width="4" stroke-opacity="1" stroke-miterlimit="4"/></svg>